<svg xmlns="http://www.w3.org/2000/svg" xmlns:xlink="http://www.w3.org/1999/xlink" contentStyleType="text/css" data-diagram-type="DESCRIPTION" height="297px" preserveAspectRatio="none" style="width:498px;height:297px;background:#FFFFFF;" version="1.1" viewBox="0 0 498 297" width="498px" zoomAndPan="magnify"><defs/><g><!--cluster Fitness Class Management System--><g class="cluster" data-entity="Fitness Class Management System" data-source-line="6" data-uid="ent0004" id="cluster_Fitness Class Management System"><rect fill="none" height="284" rx="2.5" ry="2.5" style="stroke:#181818;stroke-width:1;" width="290" x="100" y="7"/><text fill="#000000" font-family="sans-serif" font-size="14" font-weight="bold" lengthAdjust="spacing" textLength="274.3604" x="107.8198" y="21.9951">Fitness Class Management System</text></g><!--entity UC1--><g class="entity" data-entity="UC1" data-source-line="8" data-uid="ent0005" id="entity_UC1"><ellipse cx="244.9559" cy="123.1912" fill="#F1F1F1" rx="68.9559" ry="16.1912" style="stroke:#181818;stroke-width:0.5;"/><text fill="#000000" font-family="sans-serif" font-size="14" lengthAdjust="spacing" textLength="103.7354" x="193.0882" y="127.8396">View Class List</text></g><!--entity UC2--><g class="entity" data-entity="UC2" data-source-line="9" data-uid="ent0006" id="entity_UC2"><ellipse cx="244.8285" cy="57.0236" fill="#F1F1F1" rx="56.8285" ry="14.5236" style="stroke:#181818;stroke-width:0.5;"/><text fill="#000000" font-family="sans-serif" font-size="14" lengthAdjust="spacing" textLength="76.125" x="206.766" y="61.6721">Book Class</text></g><!--entity UC3--><g class="entity" data-entity="UC3" data-source-line="10" data-uid="ent0007" id="entity_UC3"><ellipse cx="245.0058" cy="189.0012" fill="#F1F1F1" rx="63.0058" ry="15.0012" style="stroke:#181818;stroke-width:0.5;"/><text fill="#000000" font-family="sans-serif" font-size="14" lengthAdjust="spacing" textLength="88.1084" x="200.9516" y="193.6496">Create Class</text></g><!--entity UC4--><g class="entity" data-entity="UC4" data-source-line="11" data-uid="ent0008" id="entity_UC4"><ellipse cx="244.936" cy="256.7872" fill="#F1F1F1" rx="76.936" ry="17.7872" style="stroke:#181818;stroke-width:0.5;"/><text fill="#000000" font-family="sans-serif" font-size="14" lengthAdjust="spacing" textLength="123.3955" x="183.2383" y="261.4356">View Booking List</text></g><!--entity Guest--><g class="entity" data-entity="Guest" data-source-line="3" data-uid="ent0002" id="entity_Guest"><ellipse cx="31.0591" cy="71.5" fill="#F1F1F1" rx="8" ry="8" style="stroke:#181818;stroke-width:0.5;"/><path d="M31.0591,79.5 L31.0591,106.5 M18.0591,87.5 L44.0591,87.5 M31.0591,106.5 L18.0591,121.5 M31.0591,106.5 L44.0591,121.5" fill="none" style="stroke:#181818;stroke-width:0.5;"/><text fill="#000000" font-family="sans-serif" font-size="14" lengthAdjust="spacing" textLength="41.1182" x="10.5" y="135.9951">Guest</text></g><!--entity Trainer--><g class="entity" data-entity="Trainer" data-source-line="4" data-uid="ent0003" id="entity_Trainer"><ellipse cx="31.0093" cy="182.5" fill="#F1F1F1" rx="8" ry="8" style="stroke:#181818;stroke-width:0.5;"/><path d="M31.0093,190.5 L31.0093,217.5 M18.0093,198.5 L44.0093,198.5 M31.0093,217.5 L18.0093,232.5 M31.0093,217.5 L44.0093,232.5" fill="none" style="stroke:#181818;stroke-width:0.5;"/><text fill="#000000" font-family="sans-serif" font-size="14" lengthAdjust="spacing" textLength="50.0186" x="6" y="246.9951">Trainer</text></g><!--entity Member--><g class="entity" data-entity="Member" data-source-line="14" data-uid="ent0009" id="entity_Member"><ellipse cx="462.793" cy="38.5" fill="#F1F1F1" rx="8" ry="8" style="stroke:#181818;stroke-width:0.5;"/><path d="M462.793,46.5 L462.793,73.5 M449.793,54.5 L475.793,54.5 M462.793,73.5 L449.793,88.5 M462.793,73.5 L475.793,88.5" fill="none" style="stroke:#181818;stroke-width:0.5;"/><text fill="#000000" font-family="sans-serif" font-size="14" lengthAdjust="spacing" textLength="57.5859" x="434" y="102.9951">Member</text></g><!--entity Admin--><g class="entity" data-entity="Admin" data-source-line="15" data-uid="ent0010" id="entity_Admin"><ellipse cx="462.9321" cy="159.5" fill="#F1F1F1" rx="8" ry="8" style="stroke:#181818;stroke-width:0.5;"/><path d="M462.9321,167.5 L462.9321,194.5 M449.9321,175.5 L475.9321,175.5 M462.9321,194.5 L449.9321,209.5 M462.9321,194.5 L475.9321,209.5" fill="none" style="stroke:#181818;stroke-width:0.5;"/><text fill="#000000" font-family="sans-serif" font-size="14" lengthAdjust="spacing" textLength="44.8643" x="440.5" y="223.9951">Admin</text></g><!--link Guest to UC1--><g class="link" data-entity-1="Guest" data-entity-2="UC1" data-source-line="18" data-uid="lnk11" id="link_Guest_UC1"><path d="M51.56,103.03 C80.88,106.07 131.522,111.3311 175.782,115.9211" fill="none" id="Guest-to-UC1" style="stroke:#181818;stroke-width:1;"/><polygon fill="#181818" points="181.75,116.54,173.2106,111.633,176.7767,116.0242,172.3854,119.5903,181.75,116.54" style="stroke:#181818;stroke-width:1;"/></g><!--link Trainer to UC1--><g class="link" data-entity-1="Trainer" data-entity-2="UC1" data-source-line="19" data-uid="lnk12" id="link_Trainer_UC1"><path d="M56.27,184.33 C66.39,174.35 78.85,163.86 92,157 C119.57,142.61 147.1233,135.2862 175.6333,130.4862" fill="none" id="Trainer-to-UC1" style="stroke:#181818;stroke-width:1;"/><polygon fill="#181818" points="181.55,129.49,172.0108,127.0397,176.6194,130.3201,173.339,134.9287,181.55,129.49" style="stroke:#181818;stroke-width:1;"/></g><!--link Trainer to UC3--><g class="link" data-entity-1="Trainer" data-entity-2="UC3" data-source-line="21" data-uid="lnk13" id="link_Trainer_UC3"><path d="M56.32,209.36 C88.08,205.92 138.695,200.4274 181.445,195.7874" fill="none" id="Trainer-to-UC3" style="stroke:#181818;stroke-width:1;"/><polygon fill="#181818" points="187.41,195.14,178.0309,192.1345,182.4392,195.6795,178.8942,200.0878,187.41,195.14" style="stroke:#181818;stroke-width:1;"/></g><!--link Trainer to UC4--><g class="link" data-entity-1="Trainer" data-entity-2="UC4" data-source-line="22" data-uid="lnk14" id="link_Trainer_UC4"><path d="M56.32,217.16 C88.08,223.9 138.7909,234.6634 181.5409,243.7434" fill="none" id="Trainer-to-UC4" style="stroke:#181818;stroke-width:1;"/><polygon fill="#181818" points="187.41,244.99,179.4374,239.2074,182.5191,243.9512,177.7753,247.0329,187.41,244.99" style="stroke:#181818;stroke-width:1;"/></g><!--reverse link UC1 to Member--><g class="link" data-entity-1="UC1" data-entity-2="Member" data-source-line="25" data-uid="lnk15" id="link_UC1_Member"><path d="M303.8921,111.4378 C333.3921,105.2478 365.02,98.08 398,89 C409.84,85.74 422.73,81.62 433.82,77.9" fill="none" id="UC1-backto-Member" style="stroke:#181818;stroke-width:1;"/><polygon fill="#181818" points="298.02,112.67,307.6496,114.7365,302.9134,111.6432,306.0067,106.907,298.02,112.67" style="stroke:#181818;stroke-width:1;"/></g><!--reverse link UC2 to Member--><g class="link" data-entity-1="UC2" data-entity-2="Member" data-source-line="26" data-uid="lnk16" id="link_UC2_Member"><path d="M307.0522,60.1054 C349.4322,62.2654 400.25,64.86 433.81,66.56" fill="none" id="UC2-backto-Member" style="stroke:#181818;stroke-width:1;"/><polygon fill="#181818" points="301.06,59.8,309.8447,64.2529,306.0535,60.0545,310.2519,56.2633,301.06,59.8" style="stroke:#181818;stroke-width:1;"/></g><!--reverse link UC1 to Admin--><g class="link" data-entity-1="UC1" data-entity-2="Admin" data-source-line="27" data-uid="lnk17" id="link_UC1_Admin"><path d="M307.6823,133.232 C336.8323,138.832 366.92,145.94 398,157 C412.63,162.21 428.23,169.96 440.37,176.53" fill="none" id="UC1-backto-Admin" style="stroke:#181818;stroke-width:1;"/><polygon fill="#181818" points="301.79,132.1,309.8737,137.7261,306.7002,133.0433,311.383,129.8698,301.79,132.1" style="stroke:#181818;stroke-width:1;"/></g><!--reverse link UC3 to Admin--><g class="link" data-entity-1="UC3" data-entity-2="Admin" data-source-line="29" data-uid="lnk18" id="link_UC3_Admin"><path d="M314.19,189 C358.68,189 409.91,189 440.48,189" fill="none" id="UC3-backto-Admin" style="stroke:#181818;stroke-width:1;"/><polygon fill="#181818" points="308.19,189,317.19,193,313.19,189,317.19,185,308.19,189" style="stroke:#181818;stroke-width:1;"/></g><!--reverse link UC4 to Admin--><g class="link" data-entity-1="UC4" data-entity-2="Admin" data-source-line="30" data-uid="lnk19" id="link_UC4_Admin"><path d="M313.5389,245.2407 C341.5789,239.5207 369.01,232.62 398,222 C412.67,216.62 428.28,208.63 440.4,201.86" fill="none" id="UC4-backto-Admin" style="stroke:#181818;stroke-width:1;"/><polygon fill="#181818" points="307.66,246.44,317.2779,248.5604,312.5591,245.4406,315.6789,240.7218,307.66,246.44" style="stroke:#181818;stroke-width:1;"/></g><!--SRC=[PL3BJiCm4BpxArQv08SS-ZWY98ZKNjeBh_kIB655OakxMwggujzn4XVSSh4ydj4ytD6xWGKGRZyC6XQgZODt3ciB0kiTgQNxio1x4kS63Vgs8oXMR9vKeUemdblqs59Ftk3fe4Pz0KVd07PADMgKlpBjatR3QWMWmairooKF8NnEaiJESxOIGgCpVl4lOB1Wt-OHI_TzchIb_YskcC1zqtCSUmMRuH-K6uAHK3SkXxAy6mkcxR_uuc5nWPU3vUFufPadN0jzaSIUA1BsDouwmMrPdYh5hUTmObF7c9B1cF67VW00]--></g></svg>