<svg xmlns="http://www.w3.org/2000/svg" xmlns:xlink="http://www.w3.org/1999/xlink" contentStyleType="text/css" data-diagram-type="DESCRIPTION" height="297px" preserveAspectRatio="none" style="width:498px;height:297px;background:#FFFFFF;" version="1.1" viewBox="0 0 498 297" width="498px" zoomAndPan="magnify"><defs/><g><!--cluster Fitness Class Management System--><g class="cluster" data-entity="Fitness Class Management System" data-source-line="6" data-uid="ent0004" id="cluster_Fitness Class Management System"><rect fill="none" height="284" rx="2.5" ry="2.5" style="stroke:#181818;stroke-width:1;" width="290" x="100" y="7"/><text fill="#000000" font-family="sans-serif" font-size="14" font-weight="bold" lengthAdjust="spacing" textLength="274.3604" x="107.8198" y="21.9951">Fitness Class Management System</text></g><!--entity UC1--><g class="entity" data-entity="UC1" data-source-line="8" data-uid="ent0005" id="entity_UC1"><ellipse cx="244.9559" cy="58.1912" fill="#F1F1F1" rx="68.9559" ry="16.1912" style="stroke:#181818;stroke-width:0.5;"/><text fill="#000000" font-family="sans-serif" font-size="14" lengthAdjust="spacing" textLength="103.7354" x="193.0882" y="62.8396">View Class List</text></g><!--entity UC2--><g class="entity" data-entity="UC2" data-source-line="9" data-uid="ent0006" id="entity_UC2"><ellipse cx="244.8285" cy="124.0236" fill="#F1F1F1" rx="56.8285" ry="14.5236" style="stroke:#181818;stroke-width:0.5;"/><text fill="#000000" font-family="sans-serif" font-size="14" lengthAdjust="spacing" textLength="76.125" x="206.766" y="128.6721">Book Class</text></g><!--entity UC3--><g class="entity" data-entity="UC3" data-source-line="10" data-uid="ent0007" id="entity_UC3"><ellipse cx="245.0058" cy="189.0012" fill="#F1F1F1" rx="63.0058" ry="15.0012" style="stroke:#181818;stroke-width:0.5;"/><text fill="#000000" font-family="sans-serif" font-size="14" lengthAdjust="spacing" textLength="88.1084" x="200.9516" y="193.6496">Create Class</text></g><!--entity UC4--><g class="entity" data-entity="UC4" data-source-line="11" data-uid="ent0008" id="entity_UC4"><ellipse cx="244.936" cy="256.7872" fill="#F1F1F1" rx="76.936" ry="17.7872" style="stroke:#181818;stroke-width:0.5;"/><text fill="#000000" font-family="sans-serif" font-size="14" lengthAdjust="spacing" textLength="123.3955" x="183.2383" y="261.4356">View Booking List</text></g><!--entity Guest--><g class="entity" data-entity="Guest" data-source-line="3" data-uid="ent0002" id="entity_Guest"><ellipse cx="31.0591" cy="28.5" fill="#F1F1F1" rx="8" ry="8" style="stroke:#181818;stroke-width:0.5;"/><path d="M31.0591,36.5 L31.0591,63.5 M18.0591,44.5 L44.0591,44.5 M31.0591,63.5 L18.0591,78.5 M31.0591,63.5 L44.0591,78.5" fill="none" style="stroke:#181818;stroke-width:0.5;"/><text fill="#000000" font-family="sans-serif" font-size="14" lengthAdjust="spacing" textLength="41.1182" x="10.5" y="92.9951">Guest</text></g><!--entity Trainer--><g class="entity" data-entity="Trainer" data-source-line="4" data-uid="ent0003" id="entity_Trainer"><ellipse cx="31.0093" cy="193.5" fill="#F1F1F1" rx="8" ry="8" style="stroke:#181818;stroke-width:0.5;"/><path d="M31.0093,201.5 L31.0093,228.5 M18.0093,209.5 L44.0093,209.5 M31.0093,228.5 L18.0093,243.5 M31.0093,228.5 L44.0093,243.5" fill="none" style="stroke:#181818;stroke-width:0.5;"/><text fill="#000000" font-family="sans-serif" font-size="14" lengthAdjust="spacing" textLength="50.0186" x="6" y="257.9951">Trainer</text></g><!--entity Member--><g class="entity" data-entity="Member" data-source-line="14" data-uid="ent0009" id="entity_Member"><ellipse cx="462.793" cy="66.5" fill="#F1F1F1" rx="8" ry="8" style="stroke:#181818;stroke-width:0.5;"/><path d="M462.793,74.5 L462.793,101.5 M449.793,82.5 L475.793,82.5 M462.793,101.5 L449.793,116.5 M462.793,101.5 L475.793,116.5" fill="none" style="stroke:#181818;stroke-width:0.5;"/><text fill="#000000" font-family="sans-serif" font-size="14" lengthAdjust="spacing" textLength="57.5859" x="434" y="130.9951">Member</text></g><!--entity Admin--><g class="entity" data-entity="Admin" data-source-line="15" data-uid="ent0010" id="entity_Admin"><ellipse cx="462.9321" cy="188.5" fill="#F1F1F1" rx="8" ry="8" style="stroke:#181818;stroke-width:0.5;"/><path d="M462.9321,196.5 L462.9321,223.5 M449.9321,204.5 L475.9321,204.5 M462.9321,223.5 L449.9321,238.5 M462.9321,223.5 L475.9321,238.5" fill="none" style="stroke:#181818;stroke-width:0.5;"/><text fill="#000000" font-family="sans-serif" font-size="14" lengthAdjust="spacing" textLength="44.8643" x="440.5" y="252.9951">Admin</text></g><!--link Guest to UC1--><g class="link" data-entity-1="Guest" data-entity-2="UC1" data-source-line="18" data-uid="lnk11" id="link_Guest_UC1"><path d="M51.56,58 C79.55,58 126.4,58 169.65,58" fill="none" id="Guest-to-UC1" style="stroke:#181818;stroke-width:1;"/><polygon fill="#181818" points="175.65,58,166.65,54,170.65,58,166.65,62,175.65,58" style="stroke:#181818;stroke-width:1;"/></g><!--link Trainer to UC3--><g class="link" data-entity-1="Trainer" data-entity-2="UC3" data-source-line="20" data-uid="lnk12" id="link_Trainer_UC3"><path d="M56.32,219.1 C89.27,213.81 143.0256,205.1895 186.2656,198.2595" fill="none" id="Trainer-to-UC3" style="stroke:#181818;stroke-width:1;"/><polygon fill="#181818" points="192.19,197.31,182.6704,194.7846,187.253,198.1012,183.9364,202.6838,192.19,197.31" style="stroke:#181818;stroke-width:1;"/></g><!--link Trainer to UC4--><g class="link" data-entity-1="Trainer" data-entity-2="UC4" data-source-line="21" data-uid="lnk13" id="link_Trainer_UC4"><path d="M56.32,226.9 C86.55,231.75 133.3656,239.2608 175.2456,245.9708" fill="none" id="Trainer-to-UC4" style="stroke:#181818;stroke-width:1;"/><polygon fill="#181818" points="181.17,246.92,172.9161,241.5466,176.233,246.129,171.6505,249.4458,181.17,246.92" style="stroke:#181818;stroke-width:1;"/></g><!--reverse link UC1 to Member--><g class="link" data-entity-1="UC1" data-entity-2="Member" data-source-line="24" data-uid="lnk14" id="link_UC1_Member"><path d="M306.4194,68.6289 C348.9094,76.0989 400.27,85.14 433.96,91.07" fill="none" id="UC1-backto-Member" style="stroke:#181818;stroke-width:1;"/><polygon fill="#181818" points="300.51,67.59,308.6815,73.0879,305.4345,68.4558,310.0667,65.2088,300.51,67.59" style="stroke:#181818;stroke-width:1;"/></g><!--reverse link UC2 to Member--><g class="link" data-entity-1="UC2" data-entity-2="Member" data-source-line="25" data-uid="lnk15" id="link_UC2_Member"><path d="M302.0502,116.7383 C344.9202,111.1783 399.12,104.15 433.98,99.63" fill="none" id="UC2-backto-Member" style="stroke:#181818;stroke-width:1;"/><polygon fill="#181818" points="296.1,117.51,305.5397,120.3192,301.0585,116.8669,304.5108,112.3857,296.1,117.51" style="stroke:#181818;stroke-width:1;"/></g><!--reverse link UC3 to Admin--><g class="link" data-entity-1="UC3" data-entity-2="Admin" data-source-line="27" data-uid="lnk16" id="link_UC3_Admin"><path d="M306.1766,197.0784 C351.5366,203.1684 407.95,210.74 440.4,215.1" fill="none" id="UC3-backto-Admin" style="stroke:#181818;stroke-width:1;"/><polygon fill="#181818" points="300.23,196.28,308.6177,201.442,305.1855,196.9453,309.6822,193.5132,300.23,196.28" style="stroke:#181818;stroke-width:1;"/></g><!--reverse link UC4 to Admin--><g class="link" data-entity-1="UC4" data-entity-2="Admin" data-source-line="28" data-uid="lnk17" id="link_UC4_Admin"><path d="M312.3647,245.0148 C357.0447,236.9548 409.38,227.5 440.38,221.9" fill="none" id="UC4-backto-Admin" style="stroke:#181818;stroke-width:1;"/><polygon fill="#181818" points="306.46,246.08,316.0272,248.4187,311.3806,245.1924,314.6069,240.5458,306.46,246.08" style="stroke:#181818;stroke-width:1;"/></g><!--SRC=[PL3BJiGm3BpxAwnU5WuziDqZGe9ASDczyBgRrdGjsaIAlQmGujz9qwm8S8aodj5unYE_6fh78CFUi9V0dObt0DIP3tXtOBNyVmmaZWF0h24tZ8pLhPXZLMn7Yk-E70qyiJDy-53ZgS9F0CI3SaSQvS_2nwpTYbg5fFZKNfII6-_V5abcroNR1YRZNtppRy5i8MueLspWwrHfnzDBRB60wtwIM7Q5s_aEAZrZ8XHISwphgnGGSlayQFxWpMnndqvOUE1Pu7SECHU5u8_d49tmigvF4MAt4aRS9Bo4Ygu_w1i0]--></g></svg>